#!OML:ASF X:\für Bonn\!DataBase\2005_08_10_Bjorn_Final\c3d\bjorn.ASF
:FULLY-SPECIFIED
:DEGREES
47
root 0.356239 19.5218 4.38802 -200.69 -39.107 195.862
lowerback 33.1815 -0.0568079 -6.00231
upperback 20.7543 -7.19593 -3.06019
thorax 6.08059 -6.23398 1.39767
lowerneck -6.61324 -10.0766 -7.34376
upperneck -4.80452 -14.7044 27.3216
head 2.5453 -7.92417 8.73761
rclavicle -1.17681e-013 -1.30403e-013
rhumerus -38.0869 -17.4927 -81.8154
rradius 19.9999
rwrist 25.3199
rhand -3.26013 13.4444
rfingers 7.12502
rthumb 22.4643 -15.2691
lclavicle -1.17681e-013 -1.30403e-013
lhumerus 57.0324 -18.1669 81.6891
lradius 68.8009
lwrist -12.8188
lhand -38.0944 -22.5588
lfingers 7.12502
lthumb -11.1303 7.12598
rfemur -81.1641 -5.5909 13.2826
rtibia 123.92
rfoot -7.00148 15.803
rtoes -24.4335
lfemur 0.273703 -11.7363 -7.98183
ltibia 21.4736
lfoot 0.0706395 -21.67
ltoes 10.4743
48
root 0.377946 19.5228 4.40786 -200.807 -39.3794 196.479
lowerback 33.6718 0.0536679 -5.7513
upperback 20.9467 -7.115 -2.85609
thorax 6.11732 -6.22162 1.47418
lowerneck -6.44234 -10.0884 -7.29488
upperneck -5.5876 -14.6428 27.7568
head 2.32284 -8.0051 8.90648
rclavicle -4.13472e-014 -9.85972e-014
rhumerus -37.984 -16.92 -81.9929
rradius 20.0599
rwrist 25.001
rhand -3.2809 13.4045
rfingers 7.12502
rthumb 22.4444 -15.3114
lclavicle -4.13472e-014 -9.85972e-014
lhumerus 58.5262 -18.727 81.5625
lradius 68.6461
lwrist -12.1689
lhand -38.3103 -22.6321
lfingers 7.12502
lthumb -11.3385 7.04141
rfemur -82.5077 -5.87192 13.5736
rtibia 124.143
rfoot -7.04323 15.9282
rtoes -23.7665
lfemur -0.633021 -12.011 -7.48263
ltibia 22.2184
lfoot -0.15486 -21.7717
ltoes 10.344
49
root 0.398605 19.5217 4.42573 -200.87 -39.6276 197.046
lowerback 34.1021 0.177582 -5.55558
upperback 21.1238 -7.01922 -2.63704
thorax 6.16797 -6.20573 1.58755
lowerneck -6.35443 -10.116 -7.25539
upperneck -6.21263 -14.6147 28.1062
head 2.1583 -8.07981 9.03796
rclavicle -9.54166e-015 2.54444e-014
rhumerus -37.9025 -16.4001 -82.0845
rradius 20.0993
rwrist 24.7674
rhand -3.2874 13.3848
rfingers 7.12502
rthumb 22.4381 -15.3318
lclavicle -9.54166e-015 2.54444e-014
lhumerus 59.8831 -19.2594 81.4378
lradius 68.5505
lwrist -11.4172
lhand -38.6434 -22.4493
lfingers 7.12502
lthumb -11.6598 7.20626
rfemur -83.8194 -6.11176 13.8621
rtibia 124.319
rfoot -7.02712 16.0536
rtoes -22.8496
lfemur -1.38185 -12.2907 -7.0173
ltibia 22.6255
lfoot -0.239149 -21.7851
ltoes 10.1347
50
root 0.418372 19.5202 4.44316 -200.982 -39.8601 197.65
lowerback 34.5091 0.305332 -5.29624
upperback 21.3323 -6.90839 -2.41741
thorax 6.25772 -6.18138 1.65964
lowerneck -6.3936 -10.1563 -7.08024
upperneck -6.75094 -14.6253 28.3756
head 2.02832 -8.16166 9.10745
rclavicle 1.90833e-014 -3.49861e-014
rhumerus -37.7956 -15.9145 -82.2227
rradius 20.1766
rwrist 24.6107
rhand -3.28081 13.3168
rfingers 7.12502
rthumb 22.4444 -15.3991
lclavicle 1.90833e-014 -3.49861e-014
lhumerus 61.1343 -19.7535 81.1948
lradius 68.6671
lwrist -10.669
lhand -38.9554 -21.8131
lfingers 7.12502
lthumb -11.9607 7.82516
rfemur -85.0052 -6.28525 14.2214
rtibia 124.442
rfoot -7.07081 16.179
rtoes -22.0215
lfemur -2.10981 -12.5822 -6.51652
ltibia 23.0354
lfoot -0.265982 -21.8003
ltoes 10.2306
51
root 0.437322 19.5177 4.45799 -201.085 -40.0334 198.195
lowerback 34.9018 0.491552 -5.10875
upperback 21.5466 -6.75092 -2.16222
thorax 6.36974 -6.14823 1.79122
lowerneck -6.47199 -10.1898 -6.92437
upperneck -7.24812 -14.63 28.6346
head 1.91653 -8.23449 9.17479
rclavicle 1.27222e-014 -4.45278e-014
rhumerus -37.6918 -15.4381 -82.3056
rradius 20.3273
rwrist 24.5107
rhand -3.25009 13.1935
rfingers 7.12502
rthumb 22.4739 -15.5188
lclavicle 1.27222e-014 -4.45278e-014
lhumerus 62.298 -20.2056 80.9357
lradius 68.8873
lwrist -9.87432
lhand -39.3971 -20.9534
lfingers 7.12502
lthumb -12.3866 8.65963
rfemur -86.1086 -6.36862 14.5747
rtibia 124.55
rfoot -7.08131 16.3246
rtoes -20.879
lfemur -2.77565 -12.8285 -6.05394
ltibia 23.4408
lfoot -0.370333 -21.7919
ltoes 10.1395
52
root 0.455397 19.5149 4.47222 -201.23 -40.164 198.757
lowerback 35.2886 0.683515 -4.91636
upperback 21.7497 -6.58351 -1.88767
thorax 6.47396 -6.11114 1.93855
lowerneck -6.43003 -10.2002 -6.87349
upperneck -7.80753 -14.5842 28.9558
head 1.77254 -8.29641 9.2964
rclavicle 4.13472e-014 6.67916e-014
rhumerus -37.6256 -14.9216 -82.364
rradius 20.4901
rwrist 24.3898
rhand -3.21235 13.0726
rfingers 7.12502
rthumb 22.5102 -15.6354
lclavicle 4.13472e-014 6.67916e-014
lhumerus 63.3496 -20.6033 80.6899
lradius 69.1668
lwrist -9.10185
lhand -39.812 -20.0934
lfingers 7.12502
lthumb -12.7865 9.49504
rfemur -87.0982 -6.37989 15.0012
rtibia 124.625
rfoot -7.13717 16.4089
rtoes -19.8576
lfemur -3.38622 -13.1083 -5.56948
ltibia 23.819
lfoot -0.382007 -21.7473
ltoes 10.2866
